<svg width="120" height="105" viewBox="0 0 120 105" fill="none" xmlns="http://www.w3.org/2000/svg">
<path id="Vector" d="M110.717 42.8978L108.838 37.166C108.093 34.8888 108.152 32.423 109.003 30.184C109.854 27.945 111.447 26.0697 113.512 24.8738L115.392 30.5976C116.137 32.8761 116.079 35.3432 115.227 37.5835C114.376 39.8239 112.783 41.7006 110.717 42.8978ZM113.462 66.1685C115.322 65.3554 117.38 65.1184 119.374 65.4882L117.155 71.0869C116.278 73.3164 114.661 75.1717 112.578 76.3377C110.495 77.5036 108.076 77.9085 105.73 77.4833L107.948 71.8767C108.447 70.606 109.192 69.4475 110.139 68.4678C111.086 67.4881 112.217 66.7067 113.465 66.1685H113.462ZM107.149 59.4281C105.537 56.4847 102.959 54.1962 99.856 52.9536L99.4339 52.7893C99.2241 51.8983 99.1309 50.9835 99.1565 50.0682L99.3368 44.0315C101.657 44.5824 103.717 45.9233 105.167 47.8272C106.618 49.7311 107.369 52.0808 107.295 54.4784L107.149 59.4281ZM104.19 26.4142L100.475 21.6757C99.002 19.7915 98.219 17.4541 98.2582 15.0571C98.2974 12.66 99.1565 10.3498 100.691 8.51543L104.404 13.2463C105.878 15.1311 106.662 17.4699 106.624 19.8685C106.585 22.267 105.725 24.5788 104.19 26.4142ZM90.5573 27.9L90.1259 28.0486C89.3978 27.4993 88.743 26.858 88.1774 26.1406L84.4631 21.402C86.5918 20.3279 89.0234 20.0245 91.3484 20.5429C93.6734 21.0614 95.7499 22.3698 97.2282 24.2482L100.269 28.1267C97.1567 26.9153 93.7218 26.835 90.5573 27.9ZM88.9958 11.6745C85.5419 9.20357 84.1281 4.32417 85.3429 0L89.1249 2.70561C92.5804 5.17656 93.9942 10.048 92.7778 14.38L88.9958 11.6745ZM82.5061 94.0684L76.8541 97.032C76.128 94.5729 76.2558 91.9382 77.2164 89.5619C78.177 87.1855 79.9132 85.2091 82.1392 83.9579L87.7352 80.8769C88.498 83.3457 88.3949 86.0032 87.443 88.4045C86.4911 90.8059 84.7482 92.8054 82.5061 94.0684ZM45.2864 102.85C45.9754 101.634 46.5091 100.337 46.8751 98.9869C55.3792 101.387 64.376 101.387 72.8801 98.9869C73.2476 100.336 73.7819 101.634 74.4704 102.85C64.9511 105.717 54.8057 105.717 45.2864 102.85ZM37.2468 94.084C35.0006 92.8208 33.2538 90.8195 32.299 88.4152C31.3443 86.0109 31.2395 83.3497 32.0022 80.8769L37.5981 83.9579C39.8243 85.2089 41.5607 87.1853 42.5213 89.5617C43.482 91.9381 43.6096 94.5729 42.8833 97.032L37.2468 94.084ZM29.871 28.0486L29.4412 27.9C26.2747 26.8389 22.84 26.9191 19.7259 28.1267L22.7664 24.256C24.243 22.3754 26.319 21.0646 28.6444 20.5447C30.9697 20.0247 33.4022 20.3276 35.5315 21.402L31.8164 26.1406C31.2525 26.8584 30.5986 27.4997 29.871 28.0486ZM31.0018 11.6745L27.2183 14.38C26.0074 10.048 27.4196 5.17656 30.8713 2.70561L34.654 0C35.8681 4.33199 34.4558 9.20357 31.0018 11.6745ZM15.8095 26.4142C14.274 24.5788 13.4145 22.267 13.3757 19.8684C13.3369 17.4697 14.1212 15.1309 15.5965 13.2463L19.3094 8.51543C20.8428 10.3502 21.7012 12.6603 21.7403 15.0572C21.7794 17.454 20.9966 19.7913 19.5238 21.6757L15.8095 26.4142ZM20.6617 44.0315L20.8412 50.0682C20.8671 50.9835 20.7741 51.8982 20.5646 52.7893L20.1433 52.9536C17.0415 54.1983 14.4645 56.4863 12.8514 59.4281L12.703 54.4784C12.6287 52.0803 13.3808 49.7302 14.8318 47.8263C16.2829 45.9223 18.3436 44.5817 20.6648 44.0315H20.6617ZM8.35984 76.803C7.11098 76.2652 5.98034 75.4839 5.03321 74.5041C4.08607 73.5244 3.34117 72.3657 2.84153 71.0948L0.622575 65.4882C2.96757 65.0675 5.38503 65.4733 7.46729 66.637C9.54955 67.8008 11.1692 69.6514 12.0532 71.8767L14.2706 77.4911C12.2759 77.8503 10.2203 77.611 8.35984 76.803ZM9.28241 42.8978C7.21763 41.6995 5.62567 39.8227 4.77405 37.5829C3.92244 35.343 3.86305 32.8764 4.60584 30.5976L6.48751 24.8738C8.55248 26.0698 10.1447 27.9453 10.9959 30.1842C11.8472 32.4232 11.9055 34.8889 11.1609 37.166L9.28241 42.8978ZM5.32557 47.3392C6.31556 48.275 7.11175 49.3987 7.66838 50.6455C8.22501 51.8922 8.53107 53.2373 8.56889 54.6035L8.74845 60.6323C6.40181 60.2206 4.26818 59.007 2.70756 57.1965C1.14695 55.3859 0.254863 53.0892 0.181877 50.6938L0 44.6571C1.99938 45.0028 3.85242 45.9359 5.32557 47.3392ZM14.0779 83.4496C15.434 83.5239 16.7619 83.8683 17.9847 84.4629C19.2075 85.0575 20.3008 85.8905 21.2011 86.9136L25.1906 91.4176C23.1305 92.6226 20.7199 93.0745 18.3667 92.6969C16.0135 92.3193 13.8623 91.1354 12.277 89.3454L8.28678 84.8414C10.0361 83.807 12.0527 83.3223 14.0779 83.4496ZM28.9904 77.3347C27.322 80.7202 26.9424 84.603 27.9233 88.2507L24.2835 84.1455C22.7015 82.3524 21.7816 80.0659 21.6784 77.6706C21.5752 75.2752 22.2951 72.9172 23.7169 70.9931L27.7064 75.4971C28.199 76.0613 28.6296 76.6774 28.9904 77.3347ZM22.3708 66.3484C19.8737 68.5847 18.2285 71.6259 17.7176 74.9498L15.8942 70.3363C15.0161 68.108 14.9281 65.6433 15.645 63.3574C16.3619 61.0714 17.8399 59.1038 19.8301 57.786L22.0467 63.3926C22.3839 64.2427 22.6077 65.1341 22.712 66.0434L22.3708 66.3484ZM15.0859 38.4719C15.8353 36.1949 17.3424 34.2475 19.3529 32.9584C21.3635 31.6692 23.7544 31.1171 26.1225 31.3952L24.2416 37.127C23.956 37.9968 23.5578 38.8249 23.0571 39.59L22.6048 39.6057C19.2693 39.6965 16.069 40.9515 13.5524 43.1558L15.0859 38.4719ZM27.0412 96.86C28.3995 96.4436 29.8272 96.3064 31.2392 96.4569C32.6513 96.6074 34.0188 97.0423 35.2602 97.7358L40.9822 100.731C39.6055 102.545 37.6961 103.877 35.5245 104.539C34.1662 104.952 32.7393 105.089 31.3278 104.94C29.9164 104.791 28.5487 104.359 27.3054 103.671L21.648 100.551C23.0246 98.792 24.9068 97.5032 27.038 96.86H27.0412ZM92.6923 96.86C94.824 97.5059 96.7075 98.7941 98.0886 100.551L92.4319 103.671C91.1879 104.359 89.8197 104.791 88.4076 104.94C86.9954 105.089 85.5679 104.953 84.2089 104.539C82.038 103.878 80.1293 102.545 78.7544 100.731L84.4942 97.7201C85.7355 97.0366 87.0998 96.6084 88.5073 96.4607C89.9148 96.313 91.3375 96.4488 92.6923 96.86ZM104.105 70.3363L102.285 74.9498C101.772 71.6266 100.127 68.586 97.6316 66.3484L97.2903 66.0434C97.3958 65.1345 97.6187 64.2434 97.9533 63.3926L100.17 57.786C102.16 59.1037 103.638 61.0713 104.355 63.3574C105.072 65.6434 104.984 68.1081 104.105 70.3363ZM99.7441 32.4431C100.959 33.0538 102.042 33.9011 102.929 34.9361C103.816 35.971 104.49 37.1728 104.912 38.4719L106.45 43.1558C103.933 40.9522 100.733 39.6972 97.3984 39.6057L96.9453 39.59C96.4446 38.8249 96.0464 37.9968 95.7608 37.127L93.8791 31.3952C95.8943 31.1463 97.9373 31.5113 99.7441 32.4431ZM92.2897 75.4971L96.28 71.0009C97.7017 72.9236 98.4215 75.2805 98.3181 77.6747C98.2148 80.0688 97.2946 82.354 95.7126 84.1455L91.713 88.6573C92.7887 85.0028 92.4884 81.0777 90.8697 77.6318C91.2538 76.8641 91.7308 76.1471 92.2897 75.4971ZM98.7974 86.9136C100.383 85.1236 102.534 83.9396 104.887 83.562C107.24 83.1844 109.651 83.6364 111.711 84.8414L107.721 89.3454C106.135 91.1354 103.984 92.3193 101.631 92.6969C99.2778 93.0745 96.8672 92.6226 94.8071 91.4176L98.7974 86.9136ZM111.252 60.6323L111.431 54.6035C111.502 52.2063 112.394 49.9072 113.955 48.095C115.516 46.2827 117.652 45.0684 120 44.6571L119.818 50.6859C119.747 53.0828 118.856 55.3816 117.295 57.1939C115.735 59.0061 113.6 60.2207 111.252 60.6323Z" fill="url(#paint0_linear_1228_1013)"/>
<defs>
<linearGradient id="paint0_linear_1228_1013" x1="60" y1="0" x2="60" y2="105" gradientUnits="userSpaceOnUse">
<stop stop-color="#6F5042"/>
<stop offset="1" stop-color="#F38844"/>
</linearGradient>
</defs>
</svg>
